<svg width="94" height="32" viewBox="0 0 94 32" fill="none" xmlns="http://www.w3.org/2000/svg">
<path d="M23.3439 4.87897C23.3441 5.77751 24.0836 6.51069 24.9923 6.5108H30.3448C31.8788 6.51084 33.2779 7.42275 33.9064 8.83502L38.0284 18.0704L41.8937 8.90924C42.5087 7.45306 43.9216 6.51373 45.4894 6.51373H49.2091V0.533264H53.6798V4.87897C53.68 5.77747 54.4196 6.51061 55.3282 6.5108H58.38V10.1602H53.6827V18.7696L53.6759 18.7657C53.6759 20.5192 54.129 20.9727 55.879 20.9727H58.2208V24.71H53.8448C50.8108 24.7099 49.2062 23.1011 49.2062 20.0635V10.1602H46.9484C46.4419 10.1603 46.0674 10.3661 45.8917 10.7442L40.1232 23.1954L40.1066 24.6983C40.1066 27.9759 38.3289 30.0137 35.4669 30.0137H28.0402V26.209H33.6564C35.3659 26.209 35.8595 26.1312 35.8595 24.3438V23.4122L29.8448 10.7344C29.6692 10.3662 29.2974 10.1603 28.7941 10.1602H23.3439V18.7696C23.3439 20.5231 23.7968 20.9756 25.547 20.9756H27.7599V24.713H23.5128C20.4785 24.713 18.8732 23.1041 18.8732 20.0665V0.533264H23.3439V4.87897ZM8.62512 0.533264C13.6934 0.533265 16.3192 2.54701 16.6437 6.68268H11.9464C11.7233 4.85494 10.6153 3.96303 8.56458 3.96295C6.65212 3.96295 5.31754 5.11169 5.3175 6.90924C5.3175 8.70683 6.0776 9.52793 8.21985 10.0381L8.21594 10.0421L11.0206 10.7208C15.1462 11.7344 16.9883 13.7617 16.9884 17.2891C16.9884 22.0094 13.7747 24.7158 8.56458 24.7159C3.35435 24.7159 0.394115 22.3275 0.0020752 17.7999H4.51282C4.80009 20.0737 6.22305 21.2256 8.56458 21.2256C10.906 21.2255 12.42 19.9587 12.42 17.9991C12.42 16.1508 11.4836 15.2219 9.08801 14.6846L6.25696 14.0352C3.74306 13.4338 0.749216 11.8054 0.749146 7.43658C0.749146 3.30752 3.91489 0.533264 8.62512 0.533264ZM81.9767 0.533264V8.91608L82.2775 8.54791H82.2736C83.3176 7.27405 84.3794 6.53424 86.7345 6.53424C90.7147 6.53436 93.0021 9.03497 93.0021 13.4005V24.713H88.5314V13.9581C88.5314 12.6066 88.1469 11.5317 87.4171 10.8458C86.8292 10.2917 86.0384 10.032 85.1329 10.086C82.9806 10.2212 81.9767 11.8932 81.9767 15.3565V24.713H77.506V0.533264H81.9767ZM67.6241 6.53033C72.4119 6.53033 75.264 8.75051 75.673 12.7813H71.2394C70.9047 11.0685 69.7968 10.2715 67.7697 10.2715H67.4757C64.8131 10.2715 63.09 12.373 63.09 15.6202C63.09 18.8673 64.8098 20.9688 67.4757 20.9688H67.7697C69.797 20.9688 70.9015 20.1712 71.2394 18.4581H75.673C75.2641 22.4925 72.4121 24.709 67.6241 24.709C62.5525 24.7089 59.0119 20.9723 59.0118 15.6202C59.0118 10.268 62.5525 6.53045 67.6241 6.53033Z" fill="black"/>
</svg>
